<?xml version="1.0" encoding="UTF-8"?>
<svg id="Livello_1" data-name="Livello 1" xmlns="http://www.w3.org/2000/svg" xmlns:xlink="http://www.w3.org/1999/xlink" viewBox="0 0 600 600">
  <defs>
    <linearGradient id="Sfumatura_senza_nome" data-name="Sfumatura senza nome" x1="300" y1="629.08" x2="300" y2="-.11" gradientTransform="translate(0 .11)" gradientUnits="userSpaceOnUse">
      <stop offset=".03" stop-color="#624d9b" stop-opacity=".8"/>
      <stop offset=".23" stop-color="#614c9a"/>
      <stop offset=".82" stop-color="#342256"/>
    </linearGradient>
  </defs>
  <g id="Livello_2" data-name="Livello 2">
    <rect width="600" height="629.19" fill="url(#Sfumatura_senza_nome)"/>
  </g>
  <g id="Livello_1-2" data-name="Livello 1-2">
    <g>
      <g id="uuid-d3fd4fbd-f4db-4ed0-b70e-d071c6f52083">
        <path d="M403.51,398.59c3.13-10.78,3.71-22.37,1.64-33.39-.69-3.7-1.56-7.11-3.15-10.47-3.09-6.53-11.97-4.02-17.13-1.71-11.24,5.05-21.33,11.91-30.39,20.29-6.22,5.75-11.33,12.16-15.75,19.35-2.44,3.97-4.19,8.13-6.1,12.49-7.77-2.8-15.18-4.36-22.58-4.6h-4.01c-7.4.25-14.8,1.81-22.58,4.6-1.91-4.36-3.65-8.52-6.1-12.49-4.42-7.2-9.53-13.6-15.75-19.35-9.05-8.38-19.15-15.25-30.39-20.29-5.16-2.32-14.03-4.82-17.13,1.71-1.59,3.36-2.46,6.77-3.16,10.47-6.54,35,13.29,71.78,49.97,77.37-.86-4.82-.5-9.21.39-13.79-3.8-2.05-6.31-5.43-6.86-9.62l2.17-.82c-2.12-4.03-3.56-8.32-2.48-13.14,3.4.67,6.36,2.35,9.21,4.34-3.8-20.54-18.39-40.04-35.35-51.1-3.02-1.97-6.23-2.93-9.8-3.81,6.02-3.34,16.48,3.72,21.02,7.37,16.77,13.51,28.81,34.69,29.51,56.84-3.61-2.77-6.56-5.45-10.35-7.73.72,4.3,3.16,7.09,5.79,10.44-1.36.46-2.58.22-4.31-.05.05,2.05,4.47,4.09,6.25,5.45.49.37-1.02,6.76-1.11,7.77-.19,2.1-.13,4.16.2,6.24.89,5.71,3.04,10.84,6.52,15.51,2.48,3.32,5.76,6.16,9.67,7.51,4.66,1.61,9.76.99,14.64.36,11.44-1.48,22.87-2.96,34.31-4.44,7.72-1,15.56-2.03,22.66-5.21,6.83-3.06,11.17-7.7,14.78-14.07,1.45-2.55,3.9-3.03,6.42-4.4,2.77-1.51,5.42-3.25,7.91-5.19,10.54-8.25,17.73-19.79,21.4-32.44h.02Z" fill="#010101"/>
        <g>
          <path d="M403.51,398.59c3.13-10.78,3.71-22.37,1.64-33.39-.69-3.7-1.56-7.11-3.15-10.47-3.09-6.53-11.97-4.02-17.13-1.71-11.24,5.05-21.33,11.91-30.39,20.29-6.22,5.75-11.33,12.16-15.75,19.35-2.44,3.97-4.19,8.13-6.1,12.49-7.77-2.8-15.18-4.36-22.58-4.6h-4.01c-7.4.25-14.8,1.81-22.58,4.6-1.91-4.36-3.65-8.52-6.1-12.49-4.42-7.2-9.53-13.6-15.75-19.35-9.05-8.38-19.15-15.25-30.39-20.29-5.16-2.32-14.03-4.82-17.13,1.71-1.59,3.36-2.46,6.77-3.16,10.47-6.54,35,13.29,71.78,49.97,77.37-.86-4.82-.5-9.21.39-13.79-3.8-2.05-6.31-5.43-6.86-9.62l2.17-.82c-2.12-4.03-3.56-8.32-2.48-13.14,3.4.67,6.36,2.35,9.21,4.34-3.8-20.54-18.39-40.04-35.35-51.1-3.02-1.97-6.23-2.93-9.8-3.81,6.02-3.34,16.48,3.72,21.02,7.37,16.77,13.51,28.81,34.69,29.51,56.84-3.61-2.77-6.56-5.45-10.35-7.73.72,4.3,3.16,7.09,5.79,10.44-1.36.46-2.58.22-4.31-.05.05,2.05,4.47,4.09,6.25,5.45.49.37-1.02,6.76-1.11,7.77-.19,2.1-.13,4.16.2,6.24.89,5.71,3.04,10.84,6.52,15.51,2.48,3.32,5.76,6.16,9.67,7.51,4.66,1.61,9.76.99,14.64.36,11.44-1.48,22.87-2.96,34.31-4.44,7.72-1,15.56-2.03,22.66-5.21,6.83-3.06,11.17-7.7,14.78-14.07,1.45-2.55,3.9-3.03,6.42-4.4,2.77-1.51,5.42-3.25,7.91-5.19,10.54-8.25,17.73-19.79,21.4-32.44h.02Z" fill="#b4b4b4"/>
          <path d="M394.64,350.55c3.08,0,5.88,1.06,7.36,4.18,1.59,3.36,2.45,6.77,3.15,10.47,2.07,11.03,1.49,22.61-1.64,33.39-3.67,12.65-10.86,24.19-21.4,32.44-2.49,1.95-5.13,3.69-7.91,5.19-2.52,1.37-4.97,1.85-6.42,4.4-3.61,6.37-7.95,11.01-14.78,14.07-7.1,3.18-14.95,4.21-22.66,5.21-11.44,1.48-22.87,2.96-34.31,4.44-2.58.33-5.22.66-7.82.66-2.33,0-4.63-.26-6.83-1.02-3.92-1.35-7.19-4.19-9.67-7.51-3.49-4.67-5.64-9.8-6.52-15.51-.32-2.08-.39-4.14-.2-6.24.09-1,1.6-7.4,1.11-7.77-1.79-1.36-6.2-3.41-6.25-5.45,1.03.16,1.87.3,2.67.3.56,0,1.09-.07,1.65-.26-2.62-3.35-5.07-6.13-5.79-10.44,3.79,2.27,6.74,4.96,10.35,7.73-.7-22.15-12.74-43.33-29.51-56.84-3.71-2.99-11.38-8.25-17.34-8.25-1.33,0-2.58.26-3.68.88,3.57.88,6.78,1.84,9.8,3.81,16.96,11.06,31.55,30.55,35.35,51.1-2.85-1.99-5.81-3.67-9.21-4.34-1.08,4.82.36,9.11,2.48,13.14l-2.17.82c.56,4.19,3.06,7.57,6.86,9.62-.89,4.57-1.25,8.96-.39,13.79-36.68-5.6-56.52-42.38-49.97-77.37.69-3.7,1.57-7.11,3.16-10.47,1.48-3.12,4.28-4.17,7.36-4.17,3.37,0,7.07,1.26,9.77,2.47,11.25,5.05,21.34,11.91,30.39,20.29,6.22,5.75,11.33,12.15,15.75,19.35,2.45,3.97,4.19,8.13,6.1,12.49,7.78-2.8,15.18-4.36,22.58-4.6h4.01c7.39.25,14.8,1.81,22.58,4.6,1.91-4.36,3.66-8.52,6.1-12.49,4.42-7.19,9.53-13.59,15.75-19.35,9.05-8.38,19.15-15.25,30.39-20.29,2.69-1.21,6.4-2.47,9.77-2.47M394.64,350.31c-3.76,0-7.79,1.56-9.87,2.49-10.94,4.91-21.18,11.75-30.45,20.34-6.03,5.57-11.19,11.92-15.79,19.4-2.26,3.69-3.92,7.49-5.68,11.53l-.34.78c-7.88-2.81-15.22-4.3-22.44-4.54h-4.02c-7.22.24-14.56,1.73-22.45,4.54-.13-.29-.25-.58-.38-.87-1.75-4-3.39-7.78-5.65-11.44-4.59-7.47-9.76-13.82-15.79-19.4-9.27-8.59-19.52-15.43-30.46-20.34-2.07-.93-6.11-2.49-9.87-2.49s-6.23,1.45-7.58,4.31c-1.75,3.71-2.59,7.41-3.18,10.53-1.74,9.32-1.63,19.12.32,28.35,1.94,9.15,5.7,17.86,10.89,25.17,4.54,6.4,10.09,11.71,16.5,15.78,6.76,4.3,14.32,7.11,22.47,8.36l.34.05-.06-.34c-.76-4.22-.63-8.44.39-13.7l.03-.18-.16-.09c-3.75-2.03-6.13-5.31-6.71-9.25l1.99-.75.26-.1-.13-.24c-1.72-3.28-3.56-7.68-2.51-12.74,3.54.75,6.6,2.66,8.88,4.26l.49.34-.11-.58c-1.83-9.86-6.24-19.96-12.78-29.2-6.24-8.83-14.09-16.45-22.68-22.06-2.73-1.78-5.59-2.76-9.23-3.68.88-.37,1.87-.56,2.97-.56,2.58,0,5.74,1,9.4,2.98,3.45,1.86,6.36,4.07,7.79,5.22,8.42,6.78,15.58,15.46,20.72,25.1,5.27,9.89,8.27,20.61,8.68,31.04-.9-.7-1.77-1.4-2.62-2.08-2.39-1.92-4.65-3.73-7.34-5.35l-.45-.27.09.52c.67,3.99,2.75,6.64,5.17,9.7.15.19.3.38.45.57-.39.1-.79.15-1.24.15-.69,0-1.44-.12-2.3-.25l-.33-.05-.29-.04v.29c.05,1.65,2.46,3.15,4.58,4.47.67.42,1.3.81,1.75,1.15.18.48-.48,3.82-.79,5.43-.2,1.01-.36,1.82-.39,2.14-.19,2.15-.12,4.21.2,6.3.91,5.81,3.06,10.91,6.57,15.61,2.78,3.72,6.17,6.34,9.79,7.59,2.02.7,4.28,1.03,6.91,1.03s5.56-.37,7.85-.67l34.31-4.44c7.64-.99,15.54-2.01,22.73-5.23,6.36-2.85,10.95-7.22,14.89-14.18,1.04-1.83,2.61-2.55,4.42-3.38.62-.28,1.26-.58,1.91-.93,2.77-1.5,5.44-3.26,7.94-5.22,10.18-7.97,17.61-19.23,21.49-32.56,3.16-10.86,3.72-22.45,1.64-33.51-.59-3.13-1.43-6.84-3.17-10.53-1.36-2.86-3.9-4.32-7.58-4.32h.01v.04Z" fill="#b4b4b4"/>
        </g>
      </g>
      <g id="Livello_1-2-2" data-name="Livello 1-2-2">
        <g>
          <path d="M397.89,354.4c-3.57.88-6.79,1.84-9.8,3.81-16.95,11.06-31.54,30.55-35.34,51.1,2.86-1.99,5.81-3.67,9.21-4.34,1.08,4.82-.37,9.11-2.48,13.14l2.17.82c-.56,4.18-3.06,7.56-6.86,9.62.87,4.52,1.24,8.85.41,13.6-1.79.78-3.51,1.66-5.18,2.63,1.95-7.69,1.19-9.63-.05-18.06,1.79-1.36,6.2-3.41,6.25-5.45-1.74.27-2.94.5-4.31.05,2.63-3.35,5.08-6.13,5.79-10.44-3.79,2.27-6.74,4.96-10.35,7.73.7-22.16,12.74-43.33,29.51-56.84,4.54-3.65,15-10.72,21.02-7.37h0Z" fill="#010101"/>
          <path d="M407.74,399.58h0c-4.67,16.48-14.47,30.12-28.43,38.59-1.4-.12-2.81-.18-4.23-.18-1.94,0-3.85.11-5.73.33,27.48-11.69,41.45-43.2,35.8-73.37-.69-3.7-1.56-7.11-3.15-10.47-3.09-6.53-11.97-4.02-17.13-1.71-11.24,5.05-21.33,11.91-30.39,20.29-6.22,5.75-11.33,12.16-15.75,19.35-2.44,3.97-4.19,8.13-6.1,12.49-7.77-2.8-15.18-4.36-22.58-4.6h-4.01c-7.4.25-14.8,1.81-22.58,4.6-1.91-4.36-3.65-8.52-6.1-12.49-4.42-7.2-9.53-13.6-15.75-19.35-9.05-8.38-19.15-15.25-30.39-20.29-5.16-2.32-14.03-4.82-17.13,1.71-1.59,3.36-2.46,6.77-3.16,10.47-6.54,35,13.29,71.78,49.97,77.37-.86-4.82-.5-9.21.39-13.79-3.8-2.05-6.31-5.43-6.86-9.62l2.17-.82c-2.12-4.03-3.56-8.32-2.48-13.14,3.4.67,6.36,2.35,9.21,4.34-3.8-20.54-18.39-40.04-35.35-51.1-3.02-1.97-6.23-2.93-9.8-3.81,6.02-3.34,16.48,3.72,21.02,7.37,16.77,13.51,28.81,34.69,29.51,56.84-3.61-2.77-6.56-5.45-10.35-7.73.72,4.3,3.16,7.09,5.79,10.44-1.36.46-2.58.22-4.31-.05.05,2.05,4.47,4.09,6.25,5.45-1.24,8.47-2,10.4,0,18.2-3.38-.74-6.89-1.12-10.49-1.12-1.95,0-3.89.11-5.78.33-20.96-6.82-35.46-23.34-41.48-44.56-2.8-9.86-3.63-19.74-2.4-29.95.65-5.4,1.62-10.48,3.52-15.47,2.14-5.63,7.16-8.8,13.23-8.19,8.81.88,18.4,6.3,25.84,11.15,9.29,6.07,17.7,13.03,24.76,21.61,4.92,5.98,9.98,13.69,12.83,20.87,6.52-2.11,13.2-3.29,19.92-3.5h4.01c6.72.21,13.41,1.39,19.92,3.5,2.86-7.18,7.91-14.89,12.83-20.87,7.06-8.58,15.47-15.55,24.77-21.61,7.43-4.85,17.03-10.27,25.84-11.15,6.07-.62,11.1,2.56,13.23,8.19,1.89,4.98,2.87,10.07,3.52,15.47,1.22,10.22.39,20.08-2.4,29.95h0l-.02.03Z" fill="#010101"/>
          <g>
            <path d="M344.8,437.03c2.32-6.88-.13-14.24-5.57-18.43-5.68-4.38-13.29-4.72-19.24-.82-7.02,4.61-9.58,13.16-6.34,20.86,3.89,9.27,13.88,14.62,23.73,12.27,2.26-.54,4.46-1.62,5.69-3.48h0c-4.5,1.7-9.08,2.48-13.52.99,7.36-.33,13.12-5.01,15.27-11.39h-.02ZM334.02,443.13c-4.4,1.9-8.96,1.38-12.6-1.39-4.28-3.26-5.95-8.82-4.22-13.94,1.61-4.77,6.12-8.46,11.53-8.56,7.85-.14,14.03,6.96,12.52,14.8h0c-.84,4.4-3.85,7.63-7.24,9.09h.01Z" fill="#010101"/>
            <path d="M295.38,417.31c-6.09-3.63-13.76-2.78-19.15,1.83-5.25,4.5-7.39,11.91-4.65,18.77,2.41,6.03,8.49,10.54,15.33,10.54-3.36.9-6.61.98-9.83.25,1.65.8,3.25,1.69,4.8,2.66,8.29.41,15.92-3.91,19.71-10.95,4.49-8.36,1.94-18.24-6.2-23.09h0ZM296.13,440.39c-5.64,5.91-15.04,4.8-19.36-1.7-4.36-6.56-1.81-15.47,5.67-18.54,5.43-2.22,11.5-.21,14.72,4.32,3.46,4.86,3.26,11.41-1.04,15.92h0Z" fill="#010101"/>
          </g>
        </g>
        <g>
          <path d="M397.89,354.4c-3.57.88-6.79,1.84-9.8,3.81-16.95,11.06-31.54,30.55-35.34,51.1,2.86-1.99,5.81-3.67,9.21-4.34,1.08,4.82-.37,9.11-2.48,13.14l2.17.82c-.56,4.18-3.06,7.56-6.86,9.62.87,4.52,1.24,8.85.41,13.6-1.79.78-3.51,1.66-5.18,2.63,1.95-7.69,1.19-9.63-.05-18.06,1.79-1.36,6.2-3.41,6.25-5.45-1.74.27-2.94.5-4.31.05,2.63-3.35,5.08-6.13,5.79-10.44-3.79,2.27-6.74,4.96-10.35,7.73.7-22.16,12.74-43.33,29.51-56.84,4.54-3.65,15-10.72,21.02-7.37h0Z" fill="#010101"/>
          <g>
            <path d="M407.74,399.58h0c-4.67,16.48-14.47,30.12-28.43,38.59-1.4-.12-2.81-.18-4.23-.18-1.94,0-3.85.11-5.73.33,27.48-11.69,41.45-43.2,35.8-73.37-.69-3.7-1.56-7.11-3.15-10.47-3.09-6.53-11.97-4.02-17.13-1.71-11.24,5.05-21.33,11.91-30.39,20.29-6.22,5.75-11.33,12.16-15.75,19.35-2.44,3.97-4.19,8.13-6.1,12.49-7.77-2.8-15.18-4.36-22.58-4.6h-4.01c-7.4.25-14.8,1.81-22.58,4.6-1.91-4.36-3.65-8.52-6.1-12.49-4.42-7.2-9.53-13.6-15.75-19.35-9.05-8.38-19.15-15.25-30.39-20.29-5.16-2.32-14.03-4.82-17.13,1.71-1.59,3.36-2.46,6.77-3.16,10.47-6.54,35,13.29,71.78,49.97,77.37-.86-4.82-.5-9.21.39-13.79-3.8-2.05-6.31-5.43-6.86-9.62l2.17-.82c-2.12-4.03-3.56-8.32-2.48-13.14,3.4.67,6.36,2.35,9.21,4.34-3.8-20.54-18.39-40.04-35.35-51.1-3.02-1.97-6.23-2.93-9.8-3.81,6.02-3.34,16.48,3.72,21.02,7.37,16.77,13.51,28.81,34.69,29.51,56.84-3.61-2.77-6.56-5.45-10.35-7.73.72,4.3,3.16,7.09,5.79,10.44-1.36.46-2.58.22-4.31-.05.05,2.05,4.47,4.09,6.25,5.45-1.24,8.47-2,10.4,0,18.2-3.38-.74-6.89-1.12-10.49-1.12-1.95,0-3.89.11-5.78.33-20.96-6.82-35.46-23.34-41.48-44.56-2.8-9.86-3.63-19.74-2.4-29.95.65-5.4,1.62-10.48,3.52-15.47,2.14-5.63,7.16-8.8,13.23-8.19,8.81.88,18.4,6.3,25.84,11.15,9.29,6.07,17.7,13.03,24.76,21.61,4.92,5.98,9.98,13.69,12.83,20.87,6.52-2.11,13.2-3.29,19.92-3.5h4.01c6.72.21,13.41,1.39,19.92,3.5,2.86-7.18,7.91-14.89,12.83-20.87,7.06-8.58,15.47-15.55,24.77-21.61,7.43-4.85,17.03-10.27,25.84-11.15,6.07-.62,11.1,2.56,13.23,8.19,1.89,4.98,2.87,10.07,3.52,15.47,1.22,10.22.39,20.08-2.4,29.95h0l-.02.03Z" fill="#010101"/>
            <path d="M394.86,345.9c5.4,0,9.8,3.1,11.76,8.27,1.89,4.98,2.87,10.07,3.52,15.47,1.22,10.22.39,20.08-2.4,29.95h0c-4.67,16.48-14.47,30.12-28.43,38.59-1.4-.12-2.81-.18-4.23-.18-1.94,0-3.85.11-5.73.33,27.48-11.69,41.45-43.2,35.8-73.37-.69-3.7-1.56-7.11-3.15-10.47-1.48-3.12-4.28-4.18-7.36-4.18-3.37,0-7.08,1.26-9.77,2.47-11.24,5.05-21.33,11.91-30.39,20.29-6.22,5.75-11.33,12.16-15.75,19.35-2.44,3.97-4.19,8.13-6.1,12.49-7.77-2.8-15.18-4.36-22.58-4.6h-4.01c-7.4.25-14.8,1.81-22.58,4.6-1.91-4.36-3.65-8.52-6.1-12.49-4.42-7.2-9.53-13.6-15.75-19.35-9.05-8.38-19.15-15.25-30.39-20.29-2.69-1.21-6.4-2.47-9.77-2.47-3.08,0-5.88,1.06-7.36,4.17-1.59,3.36-2.46,6.77-3.16,10.47-6.54,35,13.29,71.78,49.97,77.37-.86-4.82-.5-9.21.39-13.79-3.8-2.05-6.31-5.43-6.86-9.62l2.17-.82c-2.12-4.03-3.56-8.32-2.48-13.14,3.4.67,6.36,2.35,9.21,4.34-3.8-20.54-18.39-40.04-35.35-51.1-3.02-1.97-6.23-2.93-9.8-3.81,1.1-.61,2.35-.88,3.68-.88,5.96,0,13.63,5.26,17.34,8.25,16.77,13.51,28.81,34.69,29.51,56.84-3.61-2.77-6.56-5.45-10.35-7.73.72,4.3,3.16,7.09,5.79,10.44-.56.19-1.09.26-1.65.26-.8,0-1.64-.15-2.67-.3.05,2.05,4.47,4.09,6.25,5.45-1.24,8.47-2,10.4,0,18.2-3.38-.74-6.89-1.12-10.49-1.12-1.95,0-3.89.11-5.78.33-20.96-6.82-35.46-23.34-41.48-44.56-2.8-9.86-3.63-19.74-2.4-29.95.65-5.4,1.62-10.48,3.52-15.47,1.96-5.17,6.36-8.26,11.77-8.26.48,0,.97.02,1.47.07,8.81.88,18.4,6.3,25.84,11.15,9.29,6.07,17.7,13.03,24.76,21.61,4.92,5.98,9.98,13.69,12.83,20.87,6.52-2.11,13.2-3.29,19.92-3.5h4.01c6.72.21,13.41,1.39,19.92,3.5,2.86-7.18,7.91-14.89,12.83-20.87,7.06-8.58,15.47-15.55,24.77-21.61,7.43-4.85,17.03-10.27,25.84-11.15.5-.05.99-.08,1.48-.08M394.86,345.66v.24-.24c-.49,0-1,.03-1.5.08-9.32.93-19.27,6.83-25.95,11.19-10.17,6.63-18.29,13.72-24.82,21.66-5.53,6.72-10.18,14.26-12.78,20.73-6.46-2.07-13.11-3.23-19.77-3.45h-4.02c-6.64.21-13.29,1.37-19.77,3.45-2.6-6.47-7.25-14.01-12.78-20.73-6.53-7.93-14.65-15.01-24.82-21.66-6.68-4.36-16.63-10.26-25.95-11.19-.5-.05-1-.08-1.49-.08-5.51,0-9.99,3.15-11.99,8.42-1.68,4.42-2.77,9.2-3.53,15.52-1.22,10.19-.43,20.02,2.41,30.05,3.05,10.77,8.17,20.11,15.19,27.78,7.23,7.89,16.13,13.59,26.45,16.95l.05.02h.05c1.89-.23,3.83-.34,5.75-.34,3.54,0,7.05.37,10.44,1.11l.39.08-.1-.38c-1.73-6.78-1.38-9.08-.43-15.21.13-.86.29-1.84.44-2.9l.02-.14-.11-.09c-.47-.36-1.12-.76-1.81-1.19-1.78-1.11-3.97-2.47-4.3-3.77h0c.88.14,1.65.26,2.38.26.63,0,1.17-.09,1.73-.27l.33-.11-.21-.27c-.22-.29-.45-.57-.67-.85-2.26-2.87-4.23-5.36-4.97-8.94,2.47,1.53,4.59,3.23,6.82,5.03.97.78,1.98,1.59,3.04,2.4l.41.31-.02-.51c-.34-10.66-3.37-21.64-8.76-31.77-5.16-9.7-12.37-18.43-20.84-25.25-2.42-1.95-10.83-8.3-17.49-8.3-1.44,0-2.72.3-3.8.91l-.54.3.6.15c3.9.96,6.89,1.93,9.73,3.77,8.54,5.57,16.33,13.15,22.54,21.93,6.37,9,10.71,18.82,12.59,28.43-4.23-2.87-6.93-3.67-8.82-4.04l-.23-.05-.05.23c-1.16,5.19.63,9.68,2.38,13.06l-1.91.73-.18.07.02.19c.55,4.13,2.97,7.57,6.83,9.72-.98,5.1-1.11,9.25-.41,13.37-7.96-1.26-15.34-4.03-21.95-8.23-6.35-4.04-11.85-9.3-16.36-15.66-5.15-7.26-8.89-15.9-10.81-24.99-1.94-9.17-2.05-18.9-.32-28.16.82-4.38,1.76-7.5,3.14-10.41,1.27-2.68,3.67-4.03,7.14-4.03,3.67,0,7.63,1.53,9.67,2.45,10.89,4.88,21.09,11.7,30.33,20.25,6,5.55,11.14,11.86,15.71,19.3,2.24,3.63,3.88,7.4,5.62,11.38.16.36.31.72.47,1.08l.09.21.21-.08c7.92-2.85,15.28-4.35,22.5-4.59h4c7.22.24,14.59,1.74,22.5,4.59l.21.08.09-.21.43-.99c1.75-4.02,3.41-7.81,5.65-11.47,4.58-7.44,9.72-13.76,15.71-19.3,9.23-8.55,19.43-15.36,30.32-20.25,2.04-.91,6.01-2.45,9.67-2.45,3.47,0,5.87,1.36,7.14,4.04,1.72,3.64,2.55,7.3,3.13,10.41,2.77,14.78.83,30.22-5.46,43.46-3.15,6.65-7.29,12.55-12.29,17.53-5.21,5.19-11.23,9.26-17.9,12.1l-1.54.66,1.66-.19c1.9-.22,3.82-.33,5.71-.33,1.41,0,2.83.06,4.21.18h.08l.07-.03c6.92-4.2,12.9-9.7,17.77-16.36,4.79-6.55,8.42-14.08,10.77-22.38l.09-.31h0c2.77-9.92,3.53-19.65,2.32-29.74-.75-6.27-1.84-11.06-3.53-15.52-2-5.27-6.48-8.42-11.98-8.42h0l-.04-.03Z" fill="#010101"/>
          </g>
          <g>
            <g id="occhio-destro">
              <path d="M344.8,437.03c2.32-6.88-.13-14.24-5.57-18.43-5.68-4.38-13.29-4.72-19.24-.82-7.02,4.61-9.58,13.16-6.34,20.86,3.89,9.27,13.88,14.62,23.73,12.27,2.26-.54,4.46-1.62,5.69-3.48h0c-4.5,1.7-9.08,2.48-13.52.99,7.36-.33,13.12-5.01,15.27-11.39h-.02ZM334.02,443.13c-4.4,1.9-8.96,1.38-12.6-1.39-4.28-3.26-5.95-8.82-4.22-13.94,1.61-4.77,6.12-8.46,11.53-8.56,7.85-.14,14.03,6.96,12.52,14.8h0c-.84,4.4-3.85,7.63-7.24,9.09h.01Z" fill="#010101"/>
              <circle cx="328.97" cy="431.98" r="13.89" fill="#ffe64f"/>
              <path id="pupilla-destra" d="M328.23,421.98c3.75,4.19,4.01,15.75-.07,19.82-3.61-6.15-3.55-13.51.07-19.82Z" fill="#010101"/>
            </g>
            <g id="occhio-sinistro">
              <path d="M295.38,417.31c-6.09-3.63-13.76-2.78-19.15,1.83-5.25,4.5-7.39,11.91-4.65,18.77,2.41,6.03,8.49,10.54,15.33,10.54-3.36.9-6.61.98-9.83.25,1.65.8,3.25,1.69,4.8,2.66,8.29.41,15.92-3.91,19.71-10.95,4.49-8.36,1.94-18.24-6.2-23.09h0ZM296.13,440.39c-5.64,5.91-15.04,4.8-19.36-1.7-4.36-6.56-1.81-15.47,5.67-18.54,5.43-2.22,11.5-.21,14.72,4.32,3.46,4.86,3.26,11.41-1.04,15.92h0Z" fill="#010101"/>
              <circle cx="286.95" cy="431.98" r="13.89" fill="#ffe64f"/>
              <path id="pupilla-sinistra" d="M287.69,441.74c-3.58-4.49-3.59-15.36.2-19.76,3.52,4.82,3.85,15.23-.2,19.76Z" fill="#010101"/>
            </g>
          </g>
        </g>
      </g>
      <path d="M7.53,742.53c10.52-.03,21.04-.08,31.56-.16,10.56-.08,21.12-.19,31.68-.33,10.53-.14,21.07-.3,31.6-.49,10.59-.19,21.17-.41,31.75-.66,10.52-.25,21.05-.52,31.57-.82,10.54-.3,21.08-.63,31.61-.99,10.44-.35,20.89-.67,31.32-1.19,10.45-.52,20.91-.89,31.38-1.13,10.42-.24,20.84-.35,31.26-.37,10.48-.02,20.96.06,31.44.2,10.51.14,21.01.34,31.51.58,10.49.23,20.97.5,31.45.77,10.57.27,21.13.54,31.7.78,10.56.24,21.12.45,31.69.6,10.65.15,21.3.24,31.95.24s20.65-.25,30.97-.6c10.37-.35,20.73-.8,31.09-1.23,10.43-.43,20.87-.84,31.31-1.09,8.54-.2,17.08-.3,25.63-.22v-204.57c0-22.38-22.2-40.52-49.59-40.52-13.27,0-25.3,4.25-34.21,11.18-8.9-6.93-20.95-11.18-34.21-11.18-5.44,0-10.67.72-15.57,2.05-8.82-11.21-24.23-18.64-41.75-18.64h-.48c-3.14-18.61-21.75-33.18-44.88-34.78-1.4-.1-2.81-.15-4.23-.15-1.94,0-3.85.09-5.73.27-4.98.47-9.73,1.54-14.14,3.12-1.79.63-3.51,1.36-5.18,2.15-6.15,2.95-11.45,6.95-15.53,11.69-7.65-3.95-16.73-6.24-26.45-6.24-7.19,0-14.02,1.25-20.19,3.5-1.87-1.31-3.87-2.51-5.97-3.59-1.55-.79-3.14-1.51-4.8-2.17h-.01c-3.46-1.36-7.14-2.41-10.99-3.08-3.38-.6-6.89-.91-10.49-.91-1.95,0-3.89.09-5.78.27-21.8,2.07-39.3,15.69-43.06,33.19-6.01-2.12-12.63-3.29-19.59-3.29-18.71,0-35.01,8.47-43.45,20.97-6.74-2.8-14.36-4.38-22.44-4.38-22.5,0-41.51,12.24-47.57,29.02-7.13-3.25-15.35-5.1-24.1-5.1-27.4,0-61.99,11.24-61.91,33.62.23,67.36,12.74,136.38,12.9,193.68h6.95-.02Z" fill="#2e6641" stroke="#1e1e1c" stroke-miterlimit="10" stroke-width="3.97"/>
    </g>
  </g>
</svg>