<?xml version="1.0" encoding="UTF-8"?>
<svg id="Livello_1" data-name="Livello 1" xmlns="http://www.w3.org/2000/svg" xmlns:xlink="http://www.w3.org/1999/xlink" viewBox="0 0 600 600">
  <defs>
    <linearGradient id="Sfumatura_senza_nome" data-name="Sfumatura senza nome" x1="300" y1="629.1" x2="300" y2="-.1" gradientTransform="translate(0 .1)" gradientUnits="userSpaceOnUse">
      <stop offset="0" stop-color="#624d9b" stop-opacity=".8"/>
      <stop offset=".2" stop-color="#614c9a"/>
      <stop offset=".8" stop-color="#342256"/>
    </linearGradient>
    <clipPath id="clip-occhio-destro">
      <circle cx="329" cy="432" r="13.5"/>
    </clipPath>
    <clipPath id="clip-occhio-sinistro">
      <circle cx="287" cy="432" r="13.5"/>
    </clipPath>
    <style>
      @keyframes sguardo {
        0%   { transform: translateX(0px); }
        15%  { transform: translateX(5px); }
        35%  { transform: translateX(5px); }
        50%  { transform: translateX(-5px); }
        70%  { transform: translateX(-5px); }
        85%  { transform: translateX(0px); }
        100% { transform: translateX(0px); }
      }
      @keyframes sguardo-sfasato {
        0%   { transform: translateX(0px); }
        18%  { transform: translateX(5px); }
        38%  { transform: translateX(5px); }
        53%  { transform: translateX(-5px); }
        73%  { transform: translateX(-5px); }
        88%  { transform: translateX(0px); }
        100% { transform: translateX(0px); }
      }
      #pupilla-destra {
        animation: sguardo 4s ease-in-out 1.5s infinite;
        transform-box: fill-box;
        transform-origin: center center;
        will-change: transform;
        clip-path: url(#clip-occhio-destro);
      }
      #pupilla-sinistra {
        animation: sguardo-sfasato 4s ease-in-out 1.5s infinite;
        transform-box: fill-box;
        transform-origin: center center;
        will-change: transform;
        clip-path: url(#clip-occhio-sinistro);
      }
    </style>
  </defs>
  <g id="Livello_2" data-name="Livello 2">
    <rect width="600" height="629.2" fill="url(#Sfumatura_senza_nome)"/>
  </g>
  <g id="Livello_1-2" data-name="Livello 1-2">
    <g>
      <g id="uuid-d3fd4fbd-f4db-4ed0-b70e-d071c6f52083">
        <path d="M403.5,398.6c3.1-10.8,3.7-22.4,1.6-33.4-.7-3.7-1.6-7.1-3.1-10.5-3.1-6.5-12-4-17.1-1.7-11.2,5-21.3,11.9-30.4,20.3-6.2,5.8-11.3,12.2-15.8,19.4-2.4,4-4.2,8.1-6.1,12.5-7.8-2.8-15.2-4.4-22.6-4.6h-4c-7.4.2-14.8,1.8-22.6,4.6-1.9-4.4-3.6-8.5-6.1-12.5-4.4-7.2-9.5-13.6-15.8-19.4-9.1-8.4-19.1-15.2-30.4-20.3-5.2-2.3-14-4.8-17.1,1.7-1.6,3.4-2.5,6.8-3.2,10.5-6.5,35,13.3,71.8,50,77.4-.9-4.8-.5-9.2.4-13.8-3.8-2-6.3-5.4-6.9-9.6l2.2-.8c-2.1-4-3.6-8.3-2.5-13.1,3.4.7,6.4,2.4,9.2,4.3-3.8-20.5-18.4-40-35.4-51.1-3-2-6.2-2.9-9.8-3.8,6-3.3,16.5,3.7,21,7.4,16.8,13.5,28.8,34.7,29.5,56.8-3.6-2.8-6.6-5.5-10.4-7.7.7,4.3,3.2,7.1,5.8,10.4-1.4.5-2.6.2-4.3,0,0,2,4.5,4.1,6.2,5.5.5.4-1,6.8-1.1,7.8-.2,2.1-.1,4.2.2,6.2.9,5.7,3,10.8,6.5,15.5,2.5,3.3,5.8,6.2,9.7,7.5,4.7,1.6,9.8,1,14.6.4,11.4-1.5,22.9-3,34.3-4.4,7.7-1,15.6-2,22.7-5.2,6.8-3.1,11.2-7.7,14.8-14.1,1.5-2.5,3.9-3,6.4-4.4,2.8-1.5,5.4-3.2,7.9-5.2,10.5-8.2,17.7-19.8,21.4-32.4h0l.3-.2h0Z" fill="#010101"/>
        <g>
          <path d="M403.5,398.6c3.1-10.8,3.7-22.4,1.6-33.4-.7-3.7-1.6-7.1-3.1-10.5-3.1-6.5-12-4-17.1-1.7-11.2,5-21.3,11.9-30.4,20.3-6.2,5.8-11.3,12.2-15.8,19.4-2.4,4-4.2,8.1-6.1,12.5-7.8-2.8-15.2-4.4-22.6-4.6h-4c-7.4.2-14.8,1.8-22.6,4.6-1.9-4.4-3.6-8.5-6.1-12.5-4.4-7.2-9.5-13.6-15.8-19.4-9.1-8.4-19.1-15.2-30.4-20.3-5.2-2.3-14-4.8-17.1,1.7-1.6,3.4-2.5,6.8-3.2,10.5-6.5,35,13.3,71.8,50,77.4-.9-4.8-.5-9.2.4-13.8-3.8-2-6.3-5.4-6.9-9.6l2.2-.8c-2.1-4-3.6-8.3-2.5-13.1,3.4.7,6.4,2.4,9.2,4.3-3.8-20.5-18.4-40-35.4-51.1-3-2-6.2-2.9-9.8-3.8,6-3.3,16.5,3.7,21,7.4,16.8,13.5,28.8,34.7,29.5,56.8-3.6-2.8-6.6-5.5-10.4-7.7.7,4.3,3.2,7.1,5.8,10.4-1.4.5-2.6.2-4.3,0,0,2,4.5,4.1,6.2,5.5.5.4-1,6.8-1.1,7.8-.2,2.1-.1,4.2.2,6.2.9,5.7,3,10.8,6.5,15.5,2.5,3.3,5.8,6.2,9.7,7.5,4.7,1.6,9.8,1,14.6.4,11.4-1.5,22.9-3,34.3-4.4,7.7-1,15.6-2,22.7-5.2,6.8-3.1,11.2-7.7,14.8-14.1,1.5-2.5,3.9-3,6.4-4.4,2.8-1.5,5.4-3.2,7.9-5.2,10.5-8.2,17.7-19.8,21.4-32.4h0l.3-.2h0Z" fill="#b4b4b4"/>
          <path d="M394.6,350.5c3.1,0,5.9,1.1,7.4,4.2,1.6,3.4,2.5,6.8,3.1,10.5,2.1,11,1.5,22.6-1.6,33.4-3.7,12.6-10.9,24.2-21.4,32.4-2.5,2-5.1,3.7-7.9,5.2-2.5,1.4-5,1.9-6.4,4.4-3.6,6.4-8,11-14.8,14.1-7.1,3.2-15,4.2-22.7,5.2-11.4,1.5-22.9,3-34.3,4.4-2.6.3-5.2.7-7.8.7s-4.6-.3-6.8-1c-3.9-1.4-7.2-4.2-9.7-7.5-3.5-4.7-5.6-9.8-6.5-15.5-.3-2.1-.4-4.1-.2-6.2,0-1,1.6-7.4,1.1-7.8-1.8-1.4-6.2-3.4-6.2-5.5,1,.2,1.9.3,2.7.3s1.1,0,1.6-.3c-2.6-3.4-5.1-6.1-5.8-10.4,3.8,2.3,6.7,5,10.4,7.7-.7-22.1-12.7-43.3-29.5-56.8-3.7-3-11.4-8.2-17.3-8.2s-2.6.3-3.7.9c3.6.9,6.8,1.8,9.8,3.8,17,11.1,31.5,30.5,35.4,51.1-2.9-2-5.8-3.7-9.2-4.3-1.1,4.8.4,9.1,2.5,13.1l-2.2.8c.6,4.2,3.1,7.6,6.9,9.6-.9,4.6-1.2,9-.4,13.8-36.7-5.6-56.5-42.4-50-77.4.7-3.7,1.6-7.1,3.2-10.5,1.5-3.1,4.3-4.2,7.4-4.2s7.1,1.3,9.8,2.5c11.2,5,21.3,11.9,30.4,20.3,6.2,5.8,11.3,12.1,15.8,19.4,2.5,4,4.2,8.1,6.1,12.5,7.8-2.8,15.2-4.4,22.6-4.6h4c7.4.2,14.8,1.8,22.6,4.6,1.9-4.4,3.7-8.5,6.1-12.5,4.4-7.2,9.5-13.6,15.8-19.4,9-8.4,19.1-15.2,30.4-20.3,2.7-1.2,6.4-2.5,9.8-2.5M394.6,350.3c-3.8,0-7.8,1.6-9.9,2.5-10.9,4.9-21.2,11.8-30.5,20.3-6,5.6-11.2,11.9-15.8,19.4-2.3,3.7-3.9,7.5-5.7,11.5l-.3.8c-7.9-2.8-15.2-4.3-22.4-4.5h-4c-7.2.2-14.6,1.7-22.5,4.5-.1-.3-.2-.6-.4-.9-1.8-4-3.4-7.8-5.6-11.4-4.6-7.5-9.8-13.8-15.8-19.4-9.3-8.6-19.5-15.4-30.5-20.3-2.1-.9-6.1-2.5-9.9-2.5s-6.2,1.5-7.6,4.3c-1.8,3.7-2.6,7.4-3.2,10.5-1.7,9.3-1.6,19.1.3,28.4,1.9,9.1,5.7,17.9,10.9,25.2,4.5,6.4,10.1,11.7,16.5,15.8,6.8,4.3,14.3,7.1,22.5,8.4h.3v-.3c-.8-4.2-.6-8.4.4-13.7v-.2h-.1c-3.8-2-6.1-5.3-6.7-9.2l2-.8h.3c0-.1-.1-.3-.1-.3-1.7-3.3-3.6-7.7-2.5-12.7,3.5.8,6.6,2.7,8.9,4.3l.5.3v-.6c-1.9-9.9-6.3-20-12.9-29.2-6.2-8.8-14.1-16.5-22.7-22.1-2.7-1.8-5.6-2.8-9.2-3.7.9-.4,1.9-.6,3-.6,2.6,0,5.7,1,9.4,3,3.4,1.9,6.4,4.1,7.8,5.2,8.4,6.8,15.6,15.5,20.7,25.1,5.3,9.9,8.3,20.6,8.7,31-.9-.7-1.8-1.4-2.6-2.1-2.4-1.9-4.6-3.7-7.3-5.4l-.5-.3v.5c.8,4,2.8,6.6,5.3,9.7.1.2.3.4.5.6-.4.1-.8.1-1.2.1-.7,0-1.4-.1-2.3-.2h-.6v.3c0,1.6,2.5,3.1,4.6,4.5.7.4,1.3.8,1.8,1.1.2.5-.5,3.8-.8,5.4-.2,1-.4,1.8-.4,2.1-.2,2.1-.1,4.2.2,6.3.9,5.8,3.1,10.9,6.6,15.6,2.8,3.7,6.2,6.3,9.8,7.6,2,.7,4.3,1,6.9,1s5.6-.4,7.9-.7l34.3-4.4c7.6-1,15.5-2,22.7-5.2,6.4-2.9,11-7.2,14.9-14.2,1-1.8,2.6-2.5,4.4-3.4.6-.3,1.3-.6,1.9-.9,2.8-1.5,5.4-3.3,7.9-5.2,10.2-8,17.6-19.2,21.5-32.6,3.2-10.9,3.7-22.5,1.6-33.5-.6-3.1-1.4-6.8-3.2-10.5-1.4-2.9-3.9-4.3-7.6-4.3h-.2,0Z" fill="#b4b4b4"/>
        </g>
      </g>
      <g id="Livello_1-2-2" data-name="Livello 1-2-2">
        <g>
          <path d="M397.9,354.4c-3.6.9-6.8,1.8-9.8,3.8-17,11.1-31.5,30.5-35.3,51.1,2.9-2,5.8-3.7,9.2-4.3,1.1,4.8-.4,9.1-2.5,13.1l2.2.8c-.6,4.2-3.1,7.6-6.9,9.6.9,4.5,1.2,8.9.4,13.6-1.8.8-3.5,1.7-5.2,2.6,2-7.7,1.2-9.6,0-18.1,1.8-1.4,6.2-3.4,6.2-5.5-1.7.3-2.9.5-4.3,0,2.6-3.4,5.1-6.1,5.8-10.4-3.8,2.3-6.7,5-10.4,7.7.7-22.2,12.7-43.3,29.5-56.8,4.5-3.6,15-10.7,21-7.4h0v.2h.1Z" fill="#010101"/>
          <path d="M407.7,399.6h0c-4.7,16.5-14.5,30.1-28.4,38.6-1.4-.1-2.8-.2-4.2-.2s-3.9.1-5.7.3c27.5-11.7,41.5-43.2,35.8-73.4-.7-3.7-1.6-7.1-3.1-10.5-3.1-6.5-12-4-17.1-1.7-11.2,5-21.3,11.9-30.4,20.3-6.2,5.8-11.3,12.2-15.8,19.4-2.4,4-4.2,8.1-6.1,12.5-7.8-2.8-15.2-4.4-22.6-4.6h-4c-7.4.2-14.8,1.8-22.6,4.6-1.9-4.4-3.6-8.5-6.1-12.5-4.4-7.2-9.5-13.6-15.8-19.4-9.1-8.4-19.1-15.2-30.4-20.3-5.2-2.3-14-4.8-17.1,1.7-1.6,3.4-2.5,6.8-3.2,10.5-6.5,35,13.3,71.8,50,77.4-.9-4.8-.5-9.2.4-13.8-3.8-2-6.3-5.4-6.9-9.6l2.2-.8c-2.1-4-3.6-8.3-2.5-13.1,3.4.7,6.4,2.4,9.2,4.3-3.8-20.5-18.4-40-35.4-51.1-3-2-6.2-2.9-9.8-3.8,6-3.3,16.5,3.7,21,7.4,16.8,13.5,28.8,34.7,29.5,56.8-3.6-2.8-6.6-5.5-10.4-7.7.7,4.3,3.2,7.1,5.8,10.4-1.4.5-2.6.2-4.3,0,0,2,4.5,4.1,6.2,5.5-1.2,8.5-2,10.4,0,18.2-3.4-.7-6.9-1.1-10.5-1.1s-3.9.1-5.8.3c-21-6.8-35.5-23.3-41.5-44.6-2.8-9.9-3.6-19.7-2.4-30,.6-5.4,1.6-10.5,3.5-15.5,2.1-5.6,7.2-8.8,13.2-8.2,8.8.9,18.4,6.3,25.8,11.1,9.3,6.1,17.7,13,24.8,21.6,4.9,6,10,13.7,12.8,20.9,6.5-2.1,13.2-3.3,19.9-3.5h4c6.7.2,13.4,1.4,19.9,3.5,2.9-7.2,7.9-14.9,12.8-20.9,7.1-8.6,15.5-15.5,24.8-21.6,7.4-4.9,17-10.3,25.8-11.1,6.1-.6,11.1,2.6,13.2,8.2,1.9,5,2.9,10.1,3.5,15.5,1.2,10.2.4,20.1-2.4,30h.4Z" fill="#010101"/>
          <g>
            <path d="M344.8,437c2.3-6.9-.1-14.2-5.6-18.4-5.7-4.4-13.3-4.7-19.2-.8-7,4.6-9.6,13.2-6.3,20.9,3.9,9.3,13.9,14.6,23.7,12.3,2.3-.5,4.5-1.6,5.7-3.5h0c-4.5,1.7-9.1,2.5-13.5,1,7.4-.3,13.1-5,15.3-11.4h-.1v-.1ZM334,443.1c-4.4,1.9-9,1.4-12.6-1.4-4.3-3.3-6-8.8-4.2-13.9,1.6-4.8,6.1-8.5,11.5-8.6,7.9-.1,14,7,12.5,14.8h0c-.8,4.4-3.9,7.6-7.2,9.1h0Z" fill="#010101"/>
            <path d="M295.4,417.3c-6.1-3.6-13.8-2.8-19.1,1.8-5.2,4.5-7.4,11.9-4.6,18.8,2.4,6,8.5,10.5,15.3,10.5-3.4.9-6.6,1-9.8.2,1.6.8,3.2,1.7,4.8,2.7,8.3.4,15.9-3.9,19.7-11,4.5-8.4,1.9-18.2-6.2-23.1h0l-.1.1ZM296.1,440.4c-5.6,5.9-15,4.8-19.4-1.7-4.4-6.6-1.8-15.5,5.7-18.5,5.4-2.2,11.5-.2,14.7,4.3,3.5,4.9,3.3,11.4-1,15.9h0Z" fill="#010101"/>
          </g>
        </g>
        <g>
          <path d="M397.9,354.4c-3.6.9-6.8,1.8-9.8,3.8-17,11.1-31.5,30.5-35.3,51.1,2.9-2,5.8-3.7,9.2-4.3,1.1,4.8-.4,9.1-2.5,13.1l2.2.8c-.6,4.2-3.1,7.6-6.9,9.6.9,4.5,1.2,8.9.4,13.6-1.8.8-3.5,1.7-5.2,2.6,2-7.7,1.2-9.6,0-18.1,1.8-1.4,6.2-3.4,6.2-5.5-1.7.3-2.9.5-4.3,0,2.6-3.4,5.1-6.1,5.8-10.4-3.8,2.3-6.7,5-10.4,7.7.7-22.2,12.7-43.3,29.5-56.8,4.5-3.6,15-10.7,21-7.4h0v.2h.1Z" fill="#010101"/>
          <g>
            <path d="M407.7,399.6h0c-4.7,16.5-14.5,30.1-28.4,38.6-1.4-.1-2.8-.2-4.2-.2s-3.9.1-5.7.3c27.5-11.7,41.5-43.2,35.8-73.4-.7-3.7-1.6-7.1-3.1-10.5-3.1-6.5-12-4-17.1-1.7-11.2,5-21.3,11.9-30.4,20.3-6.2,5.8-11.3,12.2-15.8,19.4-2.4,4-4.2,8.1-6.1,12.5-7.8-2.8-15.2-4.4-22.6-4.6h-4c-7.4.2-14.8,1.8-22.6,4.6-1.9-4.4-3.6-8.5-6.1-12.5-4.4-7.2-9.5-13.6-15.8-19.4-9.1-8.4-19.1-15.2-30.4-20.3-5.2-2.3-14-4.8-17.1,1.7-1.6,3.4-2.5,6.8-3.2,10.5-6.5,35,13.3,71.8,50,77.4-.9-4.8-.5-9.2.4-13.8-3.8-2-6.3-5.4-6.9-9.6l2.2-.8c-2.1-4-3.6-8.3-2.5-13.1,3.4.7,6.4,2.4,9.2,4.3-3.8-20.5-18.4-40-35.4-51.1-3-2-6.2-2.9-9.8-3.8,6-3.3,16.5,3.7,21,7.4,16.8,13.5,28.8,34.7,29.5,56.8-3.6-2.8-6.6-5.5-10.4-7.7.7,4.3,3.2,7.1,5.8,10.4-1.4.5-2.6.2-4.3,0,0,2,4.5,4.1,6.2,5.5-1.2,8.5-2,10.4,0,18.2-3.4-.7-6.9-1.1-10.5-1.1s-3.9.1-5.8.3c-21-6.8-35.5-23.3-41.5-44.6-2.8-9.9-3.6-19.7-2.4-30,.6-5.4,1.6-10.5,3.5-15.5,2.1-5.6,7.2-8.8,13.2-8.2,8.8.9,18.4,6.3,25.8,11.1,9.3,6.1,17.7,13,24.8,21.6,4.9,6,10,13.7,12.8,20.9,6.5-2.1,13.2-3.3,19.9-3.5h4c6.7.2,13.4,1.4,19.9,3.5,2.9-7.2,7.9-14.9,12.8-20.9,7.1-8.6,15.5-15.5,24.8-21.6,7.4-4.9,17-10.3,25.8-11.1,6.1-.6,11.1,2.6,13.2,8.2,1.9,5,2.9,10.1,3.5,15.5,1.2,10.2.4,20.1-2.4,30h.4Z" fill="#010101"/>
            <path d="M394.9,345.9c5.4,0,9.8,3.1,11.8,8.3,1.9,5,2.9,10.1,3.5,15.5,1.2,10.2.4,20.1-2.4,30h0c-4.7,16.5-14.5,30.1-28.4,38.6-1.4-.1-2.8-.2-4.2-.2s-3.9.1-5.7.3c27.5-11.7,41.5-43.2,35.8-73.4-.7-3.7-1.6-7.1-3.1-10.5-1.5-3.1-4.3-4.2-7.4-4.2s-7.1,1.3-9.8,2.5c-11.2,5-21.3,11.9-30.4,20.3-6.2,5.8-11.3,12.2-15.8,19.4-2.4,4-4.2,8.1-6.1,12.5-7.8-2.8-15.2-4.4-22.6-4.6h-4c-7.4.2-14.8,1.8-22.6,4.6-1.9-4.4-3.6-8.5-6.1-12.5-4.4-7.2-9.5-13.6-15.8-19.4-9.1-8.4-19.1-15.2-30.4-20.3-2.7-1.2-6.4-2.5-9.8-2.5s-5.9,1.1-7.4,4.2c-1.6,3.4-2.5,6.8-3.2,10.5-6.5,35,13.3,71.8,50,77.4-.9-4.8-.5-9.2.4-13.8-3.8-2-6.3-5.4-6.9-9.6l2.2-.8c-2.1-4-3.6-8.3-2.5-13.1,3.4.7,6.4,2.4,9.2,4.3-3.8-20.5-18.4-40-35.4-51.1-3-2-6.2-2.9-9.8-3.8,1.1-.6,2.4-.9,3.7-.9,6,0,13.6,5.3,17.3,8.2,16.8,13.5,28.8,34.7,29.5,56.8-3.6-2.8-6.6-5.5-10.4-7.7.7,4.3,3.2,7.1,5.8,10.4-.6.2-1.1.3-1.6.3-.8,0-1.6-.1-2.7-.3,0,2,4.5,4.1,6.2,5.5-1.2,8.5-2,10.4,0,18.2-3.4-.7-6.9-1.1-10.5-1.1s-3.9.1-5.8.3c-21-6.8-35.5-23.3-41.5-44.6-2.8-9.9-3.6-19.7-2.4-30,.6-5.4,1.6-10.5,3.5-15.5,2-5.2,6.4-8.3,11.8-8.3s1,0,1.5,0c8.8.9,18.4,6.3,25.8,11.1,9.3,6.1,17.7,13,24.8,21.6,4.9,6,10,13.7,12.8,20.9,6.5-2.1,13.2-3.3,19.9-3.5h4c6.7.2,13.4,1.4,19.9,3.5,2.9-7.2,7.9-14.9,12.8-20.9,7.1-8.6,15.5-15.5,24.8-21.6,7.4-4.9,17-10.3,25.8-11.1h1.5M394.9,345.7v.2-.2h-1.5c-9.3.9-19.3,6.8-26,11.2-10.2,6.6-18.3,13.7-24.8,21.7-5.5,6.7-10.2,14.3-12.8,20.7-6.5-2.1-13.1-3.2-19.8-3.5h-4c-6.6.2-13.3,1.4-19.8,3.5-2.6-6.5-7.2-14-12.8-20.7-6.5-7.9-14.6-15-24.8-21.7-6.7-4.4-16.6-10.3-25.9-11.2h-1.5c-5.5,0-10,3.1-12,8.4-1.7,4.4-2.8,9.2-3.5,15.5-1.2,10.2-.4,20,2.4,30,3.1,10.8,8.2,20.1,15.2,27.8,7.2,7.9,16.1,13.6,26.4,17h0c1.9-.2,3.8-.3,5.8-.3,3.5,0,7,.4,10.4,1.1h.4v-.3c-1.8-6.8-1.5-9.1-.5-15.2.1-.9.3-1.8.4-2.9h0c0-.1-.1-.2-.1-.2-.5-.4-1.1-.8-1.8-1.2-1.8-1.1-4-2.5-4.3-3.8h0c.9.1,1.6.3,2.4.3s1.2,0,1.7-.3h.3c0-.1-.2-.4-.2-.4-.2-.3-.5-.6-.7-.9-2.3-2.9-4.2-5.4-5-8.9,2.5,1.5,4.6,3.2,6.8,5,1,.8,2,1.6,3,2.4l.4.3v-.5c-.4-10.7-3.4-21.6-8.8-31.8-5.2-9.7-12.4-18.4-20.8-25.2-2.4-2-10.8-8.3-17.5-8.3s-2.7.3-3.8.9l-.5.3h.6c3.9,1.1,6.9,2.1,9.7,3.9,8.5,5.6,16.3,13.1,22.5,21.9,6.4,9,10.7,18.8,12.6,28.4-4.2-2.9-6.9-3.7-8.8-4h-.2v.2c-1.2,5.2.6,9.7,2.4,13.1l-1.9.7h-.2v.3c.6,4.1,3,7.6,6.8,9.7-1,5.1-1.1,9.2-.4,13.4-8-1.3-15.3-4-21.9-8.2-6.4-4-11.9-9.3-16.4-15.7-5.1-7.3-8.9-15.9-10.8-25-1.9-9.2-2.1-18.9-.3-28.2.8-4.4,1.8-7.5,3.1-10.4,1.3-2.7,3.7-4,7.1-4s7.6,1.5,9.7,2.5c10.9,4.9,21.1,11.7,30.3,20.2,6,5.5,11.1,11.9,15.7,19.3,2.2,3.6,3.9,7.4,5.6,11.4.2.4.3.7.5,1.1v.2h.3c7.9-2.9,15.3-4.4,22.5-4.6h4c7.2.2,14.6,1.7,22.5,4.6h.2c0-.1.4-1.1.4-1.1,1.8-4,3.4-7.8,5.6-11.5,4.6-7.4,9.7-13.8,15.7-19.3,9.2-8.5,19.4-15.4,30.3-20.2,2-.9,6-2.5,9.7-2.5s5.9,1.4,7.1,4c1.7,3.6,2.5,7.3,3.1,10.4,2.8,14.8.8,30.2-5.5,43.5-3.1,6.6-7.3,12.5-12.3,17.5s-11.2,9.3-17.9,12.1l-1.5.7,1.7-.2c1.9-.2,3.8-.3,5.7-.3s2.8,0,4.2.2h.1c6.9-4.2,12.9-9.7,17.8-16.4,4.8-6.5,8.4-14.1,10.8-22.4v-.3h0c2.8-9.9,3.5-19.6,2.3-29.7-.8-6.3-1.8-11.1-3.5-15.5-2-5.3-6.5-8.4-12-8.4h0l.6-.2h0Z" fill="#010101"/>
          </g>
          <g>
            <g id="occhio-destro">
              <path d="M344.8,437c2.3-6.9-.1-14.2-5.6-18.4-5.7-4.4-13.3-4.7-19.2-.8-7,4.6-9.6,13.2-6.3,20.9,3.9,9.3,13.9,14.6,23.7,12.3,2.3-.5,4.5-1.6,5.7-3.5h0c-4.5,1.7-9.1,2.5-13.5,1,7.4-.3,13.1-5,15.3-11.4h-.1v-.1ZM334,443.1c-4.4,1.9-9,1.4-12.6-1.4-4.3-3.3-6-8.8-4.2-13.9,1.6-4.8,6.1-8.5,11.5-8.6,7.9-.1,14,7,12.5,14.8h0c-.8,4.4-3.9,7.6-7.2,9.1h0Z" fill="#010101"/>
              <circle cx="329" cy="432" r="13.9" fill="#ffe64f"/>
              <ellipse id="pupilla-destra" cx="328.3" cy="432" rx="2.8" ry="10.4"/>
            </g>
            <g id="occhio-sinistro">
              <path d="M295.4,417.3c-6.1-3.6-13.8-2.8-19.1,1.8-5.2,4.5-7.4,11.9-4.6,18.8,2.4,6,8.5,10.5,15.3,10.5-3.4.9-6.6,1-9.8.2,1.6.8,3.2,1.7,4.8,2.7,8.3.4,15.9-3.9,19.7-11,4.5-8.4,1.9-18.2-6.2-23.1h0l-.1.1ZM296.1,440.4c-5.6,5.9-15,4.8-19.4-1.7-4.4-6.6-1.8-15.5,5.7-18.5,5.4-2.2,11.5-.2,14.7,4.3,3.5,4.9,3.3,11.4-1,15.9h0Z" fill="#010101"/>
              <circle cx="287" cy="432" r="13.9" fill="#ffe64f"/>
              <ellipse id="pupilla-sinistra" cx="287.8" cy="432" rx="2.8" ry="10.4"/>
            </g>
          </g>
        </g>
      </g>
      <path d="M7.5,742.5c10.5,0,21,0,31.6-.2,10.6,0,21.1-.2,31.7-.3,10.5,0,21.1-.3,31.6-.5,10.6-.2,21.2-.4,31.7-.7,10.5-.2,21.1-.5,31.6-.8s21.1-.6,31.6-1c10.4-.3,20.9-.7,31.3-1.2,10.4-.5,20.9-.9,31.4-1.1,10.4-.2,20.8-.3,31.3-.4,10.5,0,21,0,31.4.2,10.5,0,21,.3,31.5.6,10.5.2,21,.5,31.5.8,10.6.3,21.1.5,31.7.8,10.6.2,21.1.5,31.7.6,10.6.2,21.3.2,32,.2s20.6-.2,31-.6c10.4-.3,20.7-.8,31.1-1.2,10.4-.4,20.9-.8,31.3-1.1,8.5-.2,17.1-.3,25.6-.2v-204.6c0-22.4-22.2-40.5-49.6-40.5s-25.3,4.2-34.2,11.2c-8.9-6.9-21-11.2-34.2-11.2s-10.7.7-15.6,2c-8.8-11.2-24.2-18.6-41.8-18.6h-.5c-3.1-18.6-21.8-33.2-44.9-34.8-1.4-.1-2.8-.1-4.2-.1s-3.9,0-5.7.3c-5,.5-9.7,1.5-14.1,3.1-1.8.6-3.5,1.4-5.2,2.1-6.1,3-11.5,7-15.5,11.7-7.6-4-16.7-6.2-26.5-6.2s-14,1.2-20.2,3.5c-1.9-1.3-3.9-2.5-6-3.6-1.5-.8-3.1-1.5-4.8-2.2h0c-3.5-1.4-7.1-2.4-11-3.1-3.4-.6-6.9-.9-10.5-.9s-3.9,0-5.8.3c-21.8,2.1-39.3,15.7-43.1,33.2-6-2.1-12.6-3.3-19.6-3.3-18.7,0-35,8.5-43.4,21-6.7-2.8-14.4-4.4-22.4-4.4-22.5,0-41.5,12.2-47.6,29-7.1-3.2-15.3-5.1-24.1-5.1-27.4,0-62,11.2-61.9,33.6.2,67.4,12.7,136.4,12.9,193.7h6.9Z" fill="#2e6641" stroke="#1e1e1c" stroke-miterlimit="10" stroke-width="4"/>
    </g>
  </g>
</svg>