<?xml version="1.0" encoding="UTF-8"?>
<svg id="Livello_1" data-name="Livello 1" xmlns="http://www.w3.org/2000/svg" xmlns:xlink="http://www.w3.org/1999/xlink" viewBox="0 0 1024 1024">
  <defs>
    <style>
      .cls-1 {
        fill: #2e6640;
        stroke: #1d1d1b;
        stroke-miterlimit: 10;
        stroke-width: 18px;
      }

      .cls-2 {
        fill: #ffe54d;
      }

      .cls-3 {
        fill: url(#Sfumatura_senza_nome);
      }

      .cls-4 {
        fill: #b3b3b3;
      }
    </style>
    <linearGradient id="Sfumatura_senza_nome" data-name="Sfumatura senza nome" x1="481.4" y1="-256.59" x2="481.4" y2="1482.05" gradientTransform="translate(0 1021.89) scale(1 -1)" gradientUnits="userSpaceOnUse">
      <stop offset=".03" stop-color="#7f47dd" stop-opacity=".8"/>
      <stop offset=".23" stop-color="#7c45d8"/>
      <stop offset=".82" stop-color="#341d56"/>
    </linearGradient>
  </defs>
  <g id="Livello_2" data-name="Livello 2">
    <rect class="cls-3" x="-749.42" y="-460.16" width="2461.65" height="1738.65"/>
  </g>
  <g id="Livello_1-2" data-name="Livello 1">
    <g>
      <g id="uuid-efa9e22f-ba4b-4021-a0ce-632f000149b1" data-name="Livello 1-2">
        <path d="M906.06,428.89c12.85-44.24,15.23-91.77,6.72-137.01-2.85-15.18-6.42-29.18-12.93-42.95-12.68-26.79-49.1-16.5-70.27-7-46.11,20.7-87.53,48.86-124.67,83.25-25.53,23.6-46.47,49.87-64.61,79.38-10.02,16.3-17.21,33.35-25.03,51.24-31.89-11.47-62.3-17.87-92.63-18.88h-16.47c-30.36,1.02-60.71,7.41-92.63,18.88-7.82-17.9-14.99-34.94-25.03-51.24-18.14-29.53-39.11-55.8-64.61-79.38-37.14-34.39-78.55-62.55-124.69-83.25-21.16-9.5-57.58-19.76-70.27,7-6.51,13.78-10.1,27.78-12.95,42.95-26.84,143.58,54.54,294.48,205.03,317.45-3.54-19.79-2.06-37.79,1.59-56.57-15.59-8.43-25.88-22.29-28.16-39.47l8.89-3.38c-8.7-16.55-14.6-34.12-10.18-53.91,13.94,2.74,26.1,9.66,37.79,17.81-15.59-84.29-75.45-164.27-145.03-209.64-12.38-8.07-25.58-12.02-40.21-15.62,24.68-13.72,67.63,15.26,86.24,30.25,68.81,55.42,118.19,142.31,121.07,233.19-14.82-11.36-26.9-22.37-42.46-31.7,2.94,17.65,12.98,29.07,23.74,42.82-5.6,1.87-10.57.91-17.7-.19.22,8.4,18.33,16.8,25.66,22.37,2,1.52-4.19,27.74-4.55,31.87-.76,8.61-.52,17.06.82,25.61,3.65,23.41,12.46,44.48,26.77,63.62,10.18,13.61,23.62,25.26,39.69,30.8,19.12,6.59,40.03,4.07,60.08,1.47,46.93-6.07,93.85-12.14,140.78-18.22,31.66-4.1,63.84-8.34,92.98-21.39,28.02-12.55,45.82-31.6,60.63-57.74,5.93-10.46,15.99-12.42,26.34-18.04,11.38-6.18,22.24-13.32,32.44-21.31,43.25-33.85,72.74-81.21,87.81-133.09v.02Z"/>
        <g>
          <path class="cls-4" d="M906.06,428.89c12.85-44.24,15.23-91.77,6.72-137.01-2.85-15.18-6.42-29.18-12.93-42.95-12.68-26.79-49.1-16.5-70.27-7-46.11,20.7-87.53,48.86-124.67,83.25-25.53,23.6-46.47,49.87-64.61,79.38-10.02,16.3-17.21,33.35-25.03,51.24-31.89-11.47-62.3-17.87-92.63-18.88h-16.47c-30.36,1.02-60.71,7.41-92.63,18.88-7.82-17.9-14.99-34.94-25.03-51.24-18.14-29.53-39.11-55.8-64.61-79.38-37.14-34.39-78.55-62.55-124.69-83.25-21.16-9.5-57.58-19.76-70.27,7-6.51,13.78-10.1,27.78-12.95,42.95-26.84,143.58,54.54,294.48,205.03,317.45-3.54-19.79-2.06-37.79,1.59-56.57-15.59-8.43-25.88-22.29-28.16-39.47l8.89-3.38c-8.7-16.55-14.6-34.12-10.18-53.91,13.94,2.74,26.1,9.66,37.79,17.81-15.59-84.29-75.45-164.27-145.03-209.64-12.38-8.07-25.58-12.02-40.21-15.62,24.68-13.72,67.63,15.26,86.24,30.25,68.81,55.42,118.19,142.31,121.07,233.19-14.82-11.36-26.9-22.37-42.46-31.7,2.94,17.65,12.98,29.07,23.74,42.82-5.6,1.87-10.57.91-17.7-.19.22,8.4,18.33,16.8,25.66,22.37,2,1.52-4.19,27.74-4.55,31.87-.76,8.61-.52,17.06.82,25.61,3.65,23.41,12.46,44.48,26.77,63.62,10.18,13.61,23.62,25.26,39.69,30.8,19.12,6.59,40.03,4.07,60.08,1.47,46.93-6.07,93.85-12.14,140.78-18.22,31.66-4.1,63.84-8.34,92.98-21.39,28.02-12.55,45.82-31.6,60.63-57.74,5.93-10.46,15.99-12.42,26.34-18.04,11.38-6.18,22.24-13.32,32.44-21.31,43.25-33.85,72.74-81.21,87.81-133.09v.02Z"/>
          <path class="cls-4" d="M869.67,231.79c12.64,0,24.13,4.33,30.18,17.13,6.51,13.78,10.07,27.78,12.93,42.95,8.51,45.24,6.13,92.77-6.72,137.01-15.07,51.88-44.56,99.24-87.81,133.09-10.2,7.98-21.06,15.12-32.44,21.31-10.35,5.62-20.41,7.58-26.34,18.04-14.81,26.14-32.61,45.19-60.63,57.74-29.13,13.05-61.32,17.29-92.98,21.39-46.93,6.07-93.85,12.14-140.78,18.22-10.59,1.37-21.4,2.72-32.08,2.72-9.55,0-18.98-1.08-28.01-4.19-16.07-5.54-29.51-17.18-39.69-30.8-14.32-19.14-23.12-40.21-26.77-63.62-1.33-8.55-1.58-17-.82-25.61.37-4.12,6.55-30.35,4.55-31.87-7.33-5.57-25.44-13.97-25.66-22.37,4.21.65,7.66,1.25,10.94,1.25,2.28,0,4.47-.29,6.76-1.06-10.76-13.75-20.8-25.17-23.74-42.82,15.56,9.33,27.64,20.34,42.46,31.7-2.88-90.88-52.26-177.78-121.07-233.19-15.21-12.25-46.67-33.84-71.13-33.84-5.47,0-10.6,1.08-15.11,3.59,14.63,3.6,27.83,7.55,40.21,15.62,69.58,45.37,129.44,125.35,145.03,209.64-11.69-8.15-23.85-15.07-37.79-17.81-4.42,19.79,1.48,37.36,10.18,53.91l-8.89,3.38c2.28,17.18,12.57,31.04,28.16,39.47-3.65,18.77-5.13,36.78-1.59,56.57-150.49-22.97-231.87-173.88-205.03-317.45,2.85-15.18,6.45-29.18,12.95-42.96,6.06-12.79,17.55-17.12,30.2-17.12,13.81,0,29.02,5.17,40.07,10.12,46.14,20.7,87.56,48.86,124.69,83.25,25.5,23.58,46.47,49.84,64.61,79.38,10.05,16.3,17.21,33.35,25.03,51.24,31.92-11.47,62.28-17.87,92.63-18.88h16.47c30.33,1.02,60.74,7.41,92.63,18.88,7.82-17.9,15.01-34.94,25.03-51.24,18.14-29.51,39.08-55.77,64.61-79.38,37.14-34.39,78.55-62.55,124.67-83.25,11.05-4.96,26.26-10.13,40.08-10.13M869.67,230.79c-15.41,0-31.98,6.4-40.49,10.22-44.87,20.14-86.91,48.21-124.94,83.43-24.72,22.86-45.91,48.89-64.78,79.59-9.29,15.12-16.1,30.74-23.32,47.29l-1.41,3.22c-32.32-11.54-62.44-17.63-92.06-18.63h-16.5c-29.62.99-59.74,7.08-92.09,18.63-.52-1.19-1.04-2.38-1.55-3.56-7.16-16.42-13.92-31.93-23.17-46.95-18.84-30.66-40.03-56.7-64.78-79.59-38.04-35.23-80.08-63.29-124.96-83.43-8.5-3.81-25.06-10.21-40.48-10.21s-25.54,5.95-31.1,17.7c-7.19,15.24-10.62,30.39-13.03,43.2-7.15,38.23-6.7,78.45,1.3,116.32,7.94,37.56,23.39,73.27,44.68,103.27,18.64,26.27,41.41,48.05,67.68,64.76,27.74,17.64,58.76,29.18,92.2,34.28l1.38.21-.25-1.38c-3.1-17.3-2.6-34.63,1.59-56.2l.14-.72-.65-.35c-15.39-8.32-25.14-21.77-27.54-37.94l8.15-3.09,1.06-.4-.53-1c-7.07-13.45-14.59-31.5-10.3-52.26,14.53,3.09,27.09,10.92,36.45,17.46l2,1.39-.44-2.4c-7.49-40.47-25.62-81.9-52.44-119.81-25.62-36.22-57.79-67.51-93.03-90.49-11.22-7.31-22.93-11.31-37.85-15.09,3.59-1.52,7.68-2.29,12.2-2.29,10.6,0,23.57,4.11,38.56,12.21,14.16,7.65,26.09,16.7,31.94,21.41,34.55,27.82,63.94,63.43,85,102.99,21.62,40.59,33.91,84.57,35.62,127.33-3.71-2.88-7.28-5.74-10.74-8.52-9.8-7.87-19.06-15.3-30.13-21.94l-1.86-1.11.36,2.13c2.73,16.39,11.29,27.23,21.2,39.78.61.77,1.22,1.55,1.83,2.33-1.6.41-3.25.6-5.07.6-2.84,0-5.9-.48-9.44-1.03l-1.35-.21-1.18-.18.03,1.2c.18,6.76,10.06,12.92,18.77,18.35,2.74,1.71,5.33,3.32,7.18,4.72.75,1.96-1.95,15.67-3.26,22.29-.82,4.16-1.47,7.45-1.58,8.76-.78,8.82-.51,17.28.83,25.85,3.72,23.82,12.54,44.77,26.96,64.06,11.41,15.25,25.3,26.02,40.17,31.14,8.29,2.86,17.56,4.24,28.33,4.24s22.82-1.51,32.2-2.73l140.78-18.22c31.34-4.06,63.75-8.25,93.26-21.47,26.08-11.68,44.92-29.62,61.09-58.16,4.26-7.52,10.69-10.46,18.12-13.85,2.54-1.16,5.17-2.36,7.82-3.8,11.37-6.17,22.33-13.37,32.58-21.4,41.78-32.7,72.26-78.9,88.15-133.6,12.95-44.55,15.28-92.09,6.74-137.47-2.42-12.86-5.86-28.05-13.01-43.2-5.56-11.75-16.02-17.71-31.09-17.71h0l.05.03Z"/>
        </g>
      </g>
      <circle class="cls-2" cx="427.85" cy="565.88" r="56.99"/>
      <circle class="cls-2" cx="600.25" cy="565.88" r="56.99"/>
      <g id="Livello_1-2-2" data-name="Livello 1-2-2">
        <g>
          <path d="M883.02,247.59c-14.66,3.6-27.86,7.55-40.21,15.62-69.55,45.37-129.41,125.32-145,209.64,11.72-8.15,23.82-15.07,37.8-17.81,4.42,19.76-1.51,37.36-10.18,53.91l8.92,3.38c-2.28,17.15-12.57,31.02-28.16,39.47,3.57,18.55,5.1,36.31,1.7,55.8-7.33,3.18-14.41,6.81-21.24,10.81,8.01-31.54,4.89-39.52-.19-74.08,7.36-5.6,25.44-13.97,25.66-22.37-7.14,1.1-12.08,2.06-17.7.19,10.79-13.75,20.83-25.17,23.77-42.82-15.56,9.33-27.64,20.34-42.46,31.7,2.88-90.91,52.26-177.78,121.07-233.19,18.64-14.99,61.56-43.97,86.24-30.25h-.02Z"/>
          <path d="M923.42,432.97h.03c-19.18,67.63-59.37,123.59-116.65,158.34-5.74-.49-11.53-.74-17.37-.74-7.96,0-15.81.47-23.52,1.34,112.73-47.98,170.04-177.23,146.87-301.01-2.85-15.18-6.42-29.18-12.93-42.95-12.68-26.79-49.1-16.5-70.27-7-46.11,20.7-87.53,48.86-124.67,83.25-25.53,23.6-46.47,49.87-64.61,79.38-10.02,16.3-17.21,33.35-25.03,51.24-31.89-11.47-62.3-17.87-92.63-18.88h-16.47c-30.36,1.02-60.71,7.41-92.63,18.88-7.82-17.9-14.99-34.94-25.03-51.24-18.14-29.53-39.11-55.8-64.61-79.38-37.14-34.39-78.55-62.55-124.69-83.25-21.16-9.5-57.58-19.76-70.27,7-6.51,13.78-10.1,27.78-12.95,42.95-26.84,143.58,54.54,294.48,205.03,317.45-3.54-19.79-2.06-37.79,1.59-56.57-15.59-8.43-25.88-22.29-28.16-39.47l8.89-3.38c-8.7-16.55-14.6-34.12-10.18-53.91,13.94,2.74,26.1,9.66,37.79,17.81-15.59-84.29-75.45-164.27-145.03-209.64-12.38-8.07-25.58-12.02-40.21-15.62,24.68-13.72,67.63,15.26,86.24,30.25,68.81,55.42,118.19,142.31,121.07,233.19-14.82-11.36-26.9-22.37-42.46-31.7,2.94,17.65,12.98,29.07,23.74,42.82-5.6,1.87-10.57.91-17.7-.19.22,8.4,18.33,16.8,25.66,22.37-5.1,34.75-8.21,42.65-.03,74.68-13.86-3.02-28.27-4.58-43.04-4.58-8.02,0-15.95.47-23.71,1.37-85.99-28-145.47-95.76-170.17-182.83-11.47-40.46-14.88-80.97-9.85-122.88,2.66-22.15,6.64-43.01,14.44-63.46,8.76-23.08,29.37-36.09,54.29-33.6,36.15,3.62,75.51,25.86,106,45.75,38.1,24.89,72.6,53.47,101.58,88.65,20.2,24.54,40.95,56.18,52.64,85.64,26.73-8.65,54.15-13.5,81.71-14.38h16.47c27.56.88,55,5.71,81.71,14.38,11.72-29.45,32.47-61.1,52.64-85.64,28.96-35.19,63.49-63.79,101.61-88.65,30.49-19.9,69.85-42.13,106-45.75,24.9-2.53,45.54,10.51,54.29,33.6,7.74,20.45,11.77,41.31,14.44,63.46,5.02,41.91,1.62,82.4-9.85,122.88v.02Z"/>
          <g>
            <path d="M665.22,586.59c9.5-28.22-.55-58.44-22.86-75.62-23.3-17.98-54.54-19.38-78.94-3.38-28.79,18.91-39.3,53.99-26.02,85.58,15.98,38.04,56.95,59.97,97.36,50.34,9.28-2.2,18.28-6.64,23.33-14.27h-.03c-18.45,6.97-37.25,10.18-55.47,4.06,30.19-1.34,53.82-20.56,62.64-46.72h-.01ZM621,611.62c-18.06,7.8-36.75,5.65-51.68-5.71-17.57-13.37-24.43-36.2-17.32-57.2,6.61-19.57,25.09-34.72,47.32-35.1,32.2-.58,57.56,28.57,51.38,60.71v.03c-3.46,18.01-15.81,31.29-29.7,37.27h0Z"/>
            <path d="M462.47,505.7c-24.98-14.88-56.46-11.42-78.55,7.49-21.55,18.47-30.33,48.86-19.08,76.99,9.88,24.76,34.83,43.23,62.88,43.23-13.78,3.68-27.12,4.01-40.35,1.04,6.78,3.29,13.34,6.92,19.68,10.9,34.01,1.67,65.32-16.06,80.86-44.93,18.44-34.28,7.96-74.82-25.44-94.72h0ZM465.54,600.39c-23.14,24.24-61.7,19.68-79.41-6.97-17.9-26.9-7.41-63.49,23.28-76.06,22.26-9.11,47.18-.85,60.41,17.73,14.19,19.93,13.37,46.82-4.28,65.3Z"/>
            <path d="M597.22,524.86c15.4,17.18,16.47,64.61-.3,81.33-14.82-25.25-14.57-55.42.3-81.33Z"/>
            <path d="M430.89,605.94c-14.68-18.42-14.71-63.02.82-81.08,14.44,19.76,15.81,62.5-.82,81.08Z"/>
          </g>
        </g>
        <g>
          <path d="M883.02,247.59c-14.66,3.6-27.86,7.55-40.21,15.62-69.55,45.37-129.41,125.32-145,209.64,11.72-8.15,23.82-15.07,37.8-17.81,4.42,19.76-1.51,37.36-10.18,53.91l8.92,3.38c-2.28,17.15-12.57,31.02-28.16,39.47,3.57,18.55,5.1,36.31,1.7,55.8-7.33,3.18-14.41,6.81-21.24,10.81,8.01-31.54,4.89-39.52-.19-74.08,7.36-5.6,25.44-13.97,25.66-22.37-7.14,1.1-12.08,2.06-17.7.19,10.79-13.75,20.83-25.17,23.77-42.82-15.56,9.33-27.64,20.34-42.46,31.7,2.88-90.91,52.26-177.78,121.07-233.19,18.64-14.99,61.56-43.97,86.24-30.25h-.02Z"/>
          <g>
            <path d="M923.42,432.97h.03c-19.18,67.63-59.37,123.59-116.65,158.34-5.74-.49-11.53-.74-17.37-.74-7.96,0-15.81.47-23.52,1.34,112.73-47.98,170.04-177.23,146.87-301.01-2.85-15.18-6.42-29.18-12.93-42.95-12.68-26.79-49.1-16.5-70.27-7-46.11,20.7-87.53,48.86-124.67,83.25-25.53,23.6-46.47,49.87-64.61,79.38-10.02,16.3-17.21,33.35-25.03,51.24-31.89-11.47-62.3-17.87-92.63-18.88h-16.47c-30.36,1.02-60.71,7.41-92.63,18.88-7.82-17.9-14.99-34.94-25.03-51.24-18.14-29.53-39.11-55.8-64.61-79.38-37.14-34.39-78.55-62.55-124.69-83.25-21.16-9.5-57.58-19.76-70.27,7-6.51,13.78-10.1,27.78-12.95,42.95-26.84,143.58,54.54,294.48,205.03,317.45-3.54-19.79-2.06-37.79,1.59-56.57-15.59-8.43-25.88-22.29-28.16-39.47l8.89-3.38c-8.7-16.55-14.6-34.12-10.18-53.91,13.94,2.74,26.1,9.66,37.79,17.81-15.59-84.29-75.45-164.27-145.03-209.64-12.38-8.07-25.58-12.02-40.21-15.62,24.68-13.72,67.63,15.26,86.24,30.25,68.81,55.42,118.19,142.31,121.07,233.19-14.82-11.36-26.9-22.37-42.46-31.7,2.94,17.65,12.98,29.07,23.74,42.82-5.6,1.87-10.57.91-17.7-.19.22,8.4,18.33,16.8,25.66,22.37-5.1,34.75-8.21,42.65-.03,74.68-13.86-3.02-28.27-4.58-43.04-4.58-8.02,0-15.95.47-23.71,1.37-85.99-28-145.47-95.76-170.17-182.83-11.47-40.46-14.88-80.97-9.85-122.88,2.66-22.15,6.64-43.01,14.44-63.46,8.76-23.08,29.37-36.09,54.29-33.6,36.15,3.62,75.51,25.86,106,45.75,38.1,24.89,72.6,53.47,101.58,88.65,20.2,24.54,40.95,56.18,52.64,85.64,26.73-8.65,54.15-13.5,81.71-14.38h16.47c27.56.88,55,5.71,81.71,14.38,11.72-29.45,32.47-61.1,52.64-85.64,28.96-35.19,63.49-63.79,101.61-88.65,30.49-19.9,69.85-42.13,106-45.75,24.9-2.53,45.54,10.51,54.29,33.6,7.74,20.45,11.77,41.31,14.44,63.46,5.02,41.91,1.62,82.4-9.85,122.88v.02Z"/>
            <path d="M870.6,212.72c22.16,0,40.2,12.72,48.23,33.91,7.74,20.45,11.77,41.31,14.44,63.46,5.02,41.91,1.62,82.4-9.85,122.88h.03c-19.18,67.63-59.37,123.59-116.65,158.34-5.74-.49-11.53-.74-17.37-.74-7.96,0-15.81.47-23.52,1.34,112.73-47.98,170.04-177.23,146.87-301.01-2.85-15.18-6.42-29.18-12.93-42.95-6.06-12.8-17.54-17.13-30.18-17.13-13.82,0-29.03,5.18-40.08,10.13-46.11,20.7-87.53,48.86-124.67,83.25-25.53,23.6-46.47,49.87-64.61,79.38-10.02,16.3-17.21,33.35-25.03,51.24-31.89-11.47-62.3-17.87-92.63-18.88h-16.47c-30.36,1.02-60.71,7.41-92.63,18.88-7.82-17.9-14.99-34.94-25.03-51.24-18.14-29.53-39.11-55.8-64.61-79.38-37.14-34.39-78.55-62.55-124.69-83.25-11.05-4.96-26.25-10.12-40.07-10.12-12.65,0-24.14,4.33-30.2,17.12-6.51,13.78-10.1,27.78-12.95,42.95-26.84,143.58,54.54,294.48,205.03,317.45-3.54-19.79-2.06-37.79,1.59-56.57-15.59-8.43-25.88-22.29-28.16-39.47l8.89-3.38c-8.7-16.55-14.6-34.12-10.18-53.91,13.94,2.74,26.1,9.66,37.79,17.81-15.59-84.29-75.45-164.27-145.03-209.64-12.38-8.07-25.58-12.02-40.21-15.62,4.51-2.51,9.64-3.59,15.11-3.59,24.46,0,55.92,21.59,71.13,33.84,68.81,55.42,118.19,142.31,121.07,233.19-14.82-11.36-26.9-22.37-42.46-31.7,2.94,17.65,12.98,29.07,23.74,42.82-2.3.77-4.49,1.06-6.76,1.06-3.28,0-6.73-.6-10.94-1.25.22,8.4,18.33,16.8,25.66,22.37-5.1,34.75-8.21,42.65-.03,74.68-13.86-3.02-28.27-4.58-43.04-4.58-8.02,0-15.95.47-23.71,1.37-85.99-28-145.47-95.76-170.17-182.83-11.47-40.46-14.88-80.97-9.85-122.88,2.66-22.15,6.64-43.01,14.44-63.46,8.04-21.2,26.08-33.9,48.27-33.9,1.98,0,3.98.1,6.02.3,36.15,3.62,75.51,25.86,106,45.75,38.1,24.89,72.6,53.47,101.58,88.65,20.2,24.54,40.95,56.18,52.64,85.64,26.73-8.65,54.15-13.5,81.71-14.38h16.47c27.56.88,55,5.71,81.71,14.38,11.72-29.45,32.47-61.1,52.64-85.64,28.96-35.19,63.49-63.79,101.61-88.65,30.49-19.9,69.85-42.13,106-45.75,2.05-.21,4.07-.31,6.06-.31M870.6,211.72v1-1c-2.03,0-4.1.11-6.16.32-38.22,3.83-79.06,28.04-106.45,45.91-41.71,27.2-75.02,56.27-101.84,88.86-22.68,27.59-41.76,58.52-52.45,85.03-26.49-8.51-53.77-13.27-81.1-14.14h-16.5c-27.23.87-54.51,5.63-81.13,14.14-10.68-26.53-29.75-57.46-52.45-85.03-26.8-32.54-60.1-61.6-101.81-88.86-27.39-17.87-68.23-42.08-106.45-45.91-2.05-.21-4.11-.31-6.12-.31-22.61,0-41,12.91-49.21,34.55-6.91,18.12-11.38,37.76-14.5,63.69-5.01,41.82-1.78,82.14,9.89,123.27,12.53,44.17,33.5,82.51,62.33,113.97,29.65,32.36,66.16,55.75,108.5,69.54l.21.07.22-.03c7.77-.91,15.71-1.37,23.6-1.37,14.52,0,28.93,1.53,42.82,4.56l1.58.34-.4-1.57c-7.1-27.82-5.65-37.24-1.76-62.4.55-3.53,1.17-7.54,1.81-11.89l.09-.58-.47-.36c-1.93-1.47-4.61-3.13-7.44-4.9-7.32-4.56-16.3-10.15-17.66-15.48h.02c3.62.57,6.75,1.05,9.75,1.05,2.57,0,4.81-.35,7.08-1.11l1.34-.45-.87-1.12c-.92-1.18-1.84-2.34-2.75-3.49-9.29-11.76-17.36-22-20.39-36.69,10.13,6.27,18.82,13.26,28,20.63,3.99,3.21,8.12,6.52,12.46,9.85l1.67,1.28-.07-2.11c-1.39-43.73-13.81-88.8-35.93-130.33-21.19-39.79-50.76-75.62-85.51-103.61-9.92-7.99-44.42-34.06-71.76-34.06-5.91,0-11.16,1.25-15.6,3.72l-2.22,1.24,2.47.61c16.01,3.93,28.26,7.9,39.9,15.48,35.03,22.84,67.01,53.95,92.49,89.97,26.13,36.93,43.95,77.21,51.65,116.64-17.37-11.79-28.42-15.07-36.17-16.59l-.96-.19-.21.95c-4.75,21.28,2.57,39.73,9.75,53.59l-7.84,2.98-.74.28.1.79c2.25,16.94,12.19,31.07,28.03,39.86-4.01,20.92-4.54,37.94-1.7,54.84-32.64-5.17-62.93-16.53-90.05-33.78-26.05-16.57-48.63-38.17-67.12-64.23-21.14-29.78-36.48-65.24-44.36-102.53-7.95-37.61-8.4-77.56-1.3-115.54,3.38-17.98,7.23-30.76,12.88-42.71,5.2-10.98,15.06-16.55,29.29-16.55,15.05,0,31.31,6.29,39.66,10.04,44.68,20.04,86.54,47.99,124.42,83.07,24.62,22.77,45.7,48.66,64.44,79.17,9.18,14.9,15.91,30.35,23.04,46.7.64,1.47,1.28,2.94,1.93,4.42l.37.86.88-.32c32.49-11.68,62.69-17.83,92.33-18.83h16.43c29.64.99,59.84,7.15,92.3,18.83l.88.32.37-.86,1.78-4.08c7.18-16.48,13.97-32.04,23.19-47.04,18.78-30.54,39.86-56.44,64.44-79.17,37.87-35.07,79.72-63.02,124.4-83.07,8.36-3.75,24.64-10.05,39.67-10.05,14.23,0,24.08,5.57,29.28,16.56,7.05,14.94,10.45,29.97,12.85,42.71,11.35,60.64,3.39,123.97-22.4,178.32-12.94,27.27-29.91,51.47-50.43,71.93-21.37,21.3-46.08,38-73.45,49.65l-6.32,2.69,6.83-.78c7.8-.89,15.68-1.34,23.41-1.34,5.79,0,11.61.25,17.29.74l.33.03.28-.17c28.39-17.22,52.92-39.8,72.9-67.11,19.66-26.87,34.53-57.76,44.19-91.82l.36-1.27h-.03c11.37-40.71,14.48-80.63,9.53-122-3.09-25.74-7.56-45.38-14.49-63.69-8.21-21.64-26.59-34.55-49.16-34.55h0l.02.02Z"/>
          </g>
          <g>
            <path d="M665.22,586.59c9.5-28.22-.55-58.44-22.86-75.62-23.3-17.98-54.54-19.38-78.94-3.38-28.79,18.91-39.3,53.99-26.02,85.58,15.98,38.04,56.95,59.97,97.36,50.34,9.28-2.2,18.28-6.64,23.33-14.27h-.03c-18.45,6.97-37.25,10.18-55.47,4.06,30.19-1.34,53.82-20.56,62.64-46.72h-.01ZM621,611.62c-18.06,7.8-36.75,5.65-51.68-5.71-17.57-13.37-24.43-36.2-17.32-57.2,6.61-19.57,25.09-34.72,47.32-35.1,32.2-.58,57.56,28.57,51.38,60.71v.03c-3.46,18.01-15.81,31.29-29.7,37.27h0Z"/>
            <path d="M462.47,505.7c-24.98-14.88-56.46-11.42-78.55,7.49-21.55,18.47-30.33,48.86-19.08,76.99,9.88,24.76,34.83,43.23,62.88,43.23-13.78,3.68-27.12,4.01-40.35,1.04,6.78,3.29,13.34,6.92,19.68,10.9,34.01,1.67,65.32-16.06,80.86-44.93,18.44-34.28,7.96-74.82-25.44-94.72h0ZM465.54,600.39c-23.14,24.24-61.7,19.68-79.41-6.97-17.9-26.9-7.41-63.49,23.28-76.06,22.26-9.11,47.18-.85,60.41,17.73,14.19,19.93,13.37,46.82-4.28,65.3Z"/>
            <path d="M597.22,524.86c15.4,17.18,16.47,64.61-.3,81.33-14.82-25.25-14.57-55.42.3-81.33Z"/>
            <path d="M430.89,605.94c-14.68-18.42-14.71-63.02.82-81.08,14.44,19.76,15.81,62.5-.82,81.08Z"/>
          </g>
        </g>
      </g>
      <path class="cls-1" d="M-718.51,2110.77c43.16-.13,86.31-.41,129.47-.82,43.32-.41,86.65-.96,129.97-1.65,43.22-.69,86.44-1.51,129.66-2.47,43.43-.96,86.86-2.07,130.28-3.31,43.18-1.24,86.35-2.61,129.52-4.12,43.24-1.52,86.47-3.17,129.7-4.97,42.83-1.78,85.7-3.35,128.49-5.98,42.87-2.63,85.79-4.47,128.73-5.68,42.74-1.2,85.49-1.77,128.25-1.87,43-.1,86.01.29,129,.99,43.1.7,86.18,1.73,129.27,2.91,43.02,1.18,86.03,2.53,129.04,3.88,43.35,1.36,86.7,2.72,130.06,3.93,43.33,1.21,86.66,2.27,130,3.02,43.69.76,87.39,1.23,131.09,1.19,42.37-.04,84.72-1.28,127.05-3.03,42.53-1.76,85.04-4.04,127.55-6.18,42.81-2.16,85.62-4.2,128.47-5.45,35.03-1.02,70.09-1.51,105.14-1.11v-1027.28c0-112.4-91.1-203.49-203.47-203.49-54.43,0-103.8,21.35-140.34,56.13-36.53-34.78-85.96-56.13-140.36-56.13-22.32,0-43.78,3.6-63.87,10.27-36.2-56.29-99.39-93.6-171.3-93.6-.66,0-1.32,0-1.95.03-12.87-93.46-89.23-166.63-184.14-174.65-5.74-.49-11.53-.74-17.37-.74-7.96,0-15.81.47-23.52,1.34-20.42,2.36-39.91,7.74-58.02,15.67-7.33,3.18-14.41,6.81-21.24,10.81-25.25,14.79-46.99,34.89-63.73,58.71-31.4-19.84-68.62-31.34-108.53-31.34-29.51,0-57.53,6.29-82.84,17.59-7.68-6.59-15.87-12.6-24.48-18.01-6.34-3.98-12.9-7.6-19.68-10.9h-.05c-14.19-6.83-29.31-12.08-45.1-15.45-13.86-3.02-28.27-4.58-43.04-4.58-8.02,0-15.95.47-23.71,1.37-89.45,10.37-161.23,78.8-176.65,166.66-24.65-10.65-51.82-16.52-80.39-16.52-76.77,0-143.63,42.52-178.27,105.32-27.64-14.05-58.93-21.99-92.06-21.99-92.33,0-170.31,61.48-195.18,145.74-29.26-16.3-62.99-25.61-98.87-25.61-112.4,0-203.81,91.1-203.49,203.49.95,338.26,1.76,650.22,2.43,937.93,9.5-.02,19-.01,28.5-.04h-.02Z"/>
    </g>
  </g>
</svg>
